<?xml version="1.0" encoding="UTF-8" standalone="no"?>
<!DOCTYPE svg PUBLIC "-//W3C//DTD SVG 20010904//EN" "http://www.w3.org/TR/2001/REC-SVG-20010904/DTD/svg10.dtd">
<!-- Created with Sodipodi ("http://www.sodipodi.com/") -->
<svg id="svg592" sodipodi:version="0.33" width="600pt" height="600pt" sodipodi:docbase="/home/tobias/Desktop" sodipodi:docname="/home/tobias/Desktop/High_flammable.svg" sodipodi:author="Aqua78" xmlns="http://www.w3.org/2000/svg" xmlns:sodipodi="http://sodipodi.sourceforge.net/DTD/sodipodi-0.dtd" xmlns:xlink="http://www.w3.org/1999/xlink">
  <defs id="defs594"/>
  <sodipodi:namedview id="base"/>
  <rect style="fill: rgb(255, 103, 0); fill-rule: evenodd; stroke: rgb(0, 0, 0); stroke-width: 6.25;" id="rect633" width="600.000000" height="600.000000" x="84.682228" y="154.565033" transform="translate(-4.65084, -74.4133)"/>
  <g id="g567" transform="matrix(3.98754, 0, 0, 3.98754, -139.4, 63.2455)">
    <path style="fill: rgb(0, 0, 0); fill-rule: evenodd; stroke: none; stroke-opacity: 1; stroke-width: 1pt; stroke-linejoin: miter; stroke-linecap: butt; fill-opacity: 1;" d="M 131.7917 137.2144 C 131.7917 137.2144 173.1126 145.0436 173.5475 100.8957 C 170.7203 105.6802 167.2407 105.2452 167.2407 105.2452 C 167.2407 105.2452 166.1533 102.6355 169.6329 89.15192 C 173.1126 75.66826 165.9358 66.31668 165.9358 66.31668 C 165.9358 66.31668 162.4561 71.53610 160.7163 74.58084 C 158.9765 77.62558 159.4115 49.57085 147.4501 41.74164 C 147.0152 47.61353 143.5355 50.65826 143.5355 50.65826 C 143.5355 50.65826 140.7083 44.78645 139.4034 38.69705 C 138.0986 35.65231 134.1840 30.43282 131.7917 28.25806 C 128.5295 23.69102 126.5722 16.51421 126.5722 16.51421 C 126.5722 16.51421 122.4402 23.03848 122.8751 26.51817 C 123.3101 29.99786 125.4848 40.65422 120.4829 43.69896 C 119.6129 37.39212 110.9138 34.78233 110.9138 34.78233 C 110.9138 34.78233 116.1333 44.13391 105.9118 69.57886 C 105.4769 62.61955 98.30009 58.27003 98.30009 58.27003 C 98.30009 58.27003 98.51756 67.83905 95.03791 80.67024 C 91.55827 93.50143 89.60096 83.71498 87.42619 83.93242 C 87.20871 85.67223 87.20870 86.75957 87.64365 88.28194 C 88.07861 89.80431 79.37950 142.2163 114.1760 137.2144 C 96.77773 121.9910 100.0399 106.1151 100.0399 106.1151 C 100.0399 106.1151 101.7797 107.6375 103.0846 107.6375 C 104.3895 107.6375 105.0419 94.15398 108.7390 92.41409 C 110.0439 101.1132 109.3915 111.5519 117.2207 117.4239 C 114.1760 99.15588 119.1780 92.19658 119.1780 92.19658 C 119.1780 92.19658 124.3975 104.5927 125.9198 105.0277 C 127.4421 105.4626 137.0112 89.36935 133.0966 75.45074 C 138.9685 81.54007 145.4928 93.28392 140.9258 102.2004 C 146.5802 99.80827 147.0152 97.19849 149.8424 95.24124 C 151.3647 98.50334 151.5822 102.2004 150.9298 107.2024 C 152.8871 108.7248 154.8444 107.4199 154.8444 107.4199 C 154.8444 107.4199 158.7590 123.5132 131.7917 137.2144 z " id="path563" sodipodi:nodetypes="cccccccccccccccccccccccccccccccc"/>
    <path style="fill: none; fill-rule: evenodd; stroke: rgb(0, 0, 0); stroke-opacity: 1; stroke-width: 1pt; stroke-linejoin: miter; stroke-linecap: butt; fill-opacity: 1;" d="M 99.16999 142.4339 L 153.5395 141.9990 " id="path564"/>
  </g>
</svg>